<svg width="140" height="140" viewBox="0 0 140 140" fill="none" xmlns="http://www.w3.org/2000/svg">
<path d="M120 105V55C120 52.3478 118.946 49.8043 117.071 47.9289C115.196 46.0536 112.652 45 110 45H76.18C74.3225 44.9999 72.5018 44.4825 70.9219 43.5058C69.3419 42.529 68.0653 41.1316 67.235 39.47L62.765 30.53C61.9343 28.8677 60.6569 27.4697 59.076 26.4929C57.4951 25.5161 55.6733 24.9991 53.815 25H30C27.3478 25 24.8043 26.0536 22.9289 27.9289C21.0536 29.8043 20 32.3478 20 35V105C20 107.652 21.0536 110.196 22.9289 112.071C24.8043 113.946 27.3478 115 30 115H110C112.652 115 115.196 113.946 117.071 112.071C118.946 110.196 120 107.652 120 105Z" stroke="#555555" stroke-width="9" stroke-linecap="round" stroke-linejoin="round"/>
</svg>
