<svg width="660" height="140" viewBox="0 0 660 140" fill="none" xmlns="http://www.w3.org/2000/svg">
<path d="M70 20L85.45 51.3L120 56.35L95 80.7L100.9 115.1L70 98.85L39.1 115.1L45 80.7L20 56.35L54.55 51.3L70 20Z" stroke="#FFE600" stroke-width="6" stroke-linecap="round" stroke-linejoin="round"/>
<path d="M200 20L215.45 51.3L250 56.35L225 80.7L230.9 115.1L200 98.85L169.1 115.1L175 80.7L150 56.35L184.55 51.3L200 20Z" stroke="#FFE600" stroke-width="6" stroke-linecap="round" stroke-linejoin="round"/>
<path d="M330 20L345.45 51.3L380 56.35L355 80.7L360.9 115.1L330 98.85L299.1 115.1L305 80.7L280 56.35L314.55 51.3L330 20Z" stroke="#FFE600" stroke-width="6" stroke-linecap="round" stroke-linejoin="round"/>
<path d="M460 20L475.45 51.3L510 56.35L485 80.7L490.9 115.1L460 98.85L429.1 115.1L435 80.7L410 56.35L444.55 51.3L460 20Z" stroke="#FFE600" stroke-width="6" stroke-linecap="round" stroke-linejoin="round"/>
<path d="M590 18L605.45 49.3L640 54.35L615 78.7L620.9 113.1L590 96.85L559.1 113.1L565 78.7L540 54.35L574.55 49.3L590 18Z" stroke="#606060" stroke-width="6" stroke-linecap="round" stroke-linejoin="round"/>
</svg>
