<svg width="660" height="140" viewBox="0 0 660 140" fill="none" xmlns="http://www.w3.org/2000/svg">
<path d="M565 25C551.195 25 540 36.08 540 49.75C540 60.785 544.375 86.975 587.44 113.45C588.211 113.919 589.097 114.168 590 114.168C590.903 114.168 591.789 113.919 592.56 113.45C635.625 86.975 640 60.785 640 49.75C640 36.08 628.805 25 615 25C601.195 25 590 40 590 40C590 40 578.805 25 565 25Z" stroke="#555555" stroke-width="7" stroke-linecap="round" stroke-linejoin="round"/>
<path d="M376.285 66.81C378.655 69.91 378.655 74.095 376.285 77.19C368.82 86.935 350.91 107 330 107C309.09 107 291.18 86.935 283.715 77.19C282.561 75.7057 281.936 73.8796 281.936 72C281.936 70.1204 282.561 68.2943 283.715 66.81C291.18 57.065 309.09 37 330 37C350.91 37 368.82 57.065 376.285 66.81V66.81Z" stroke="#555555" stroke-width="7" stroke-linecap="round" stroke-linejoin="round"/>
<path d="M330 87C338.284 87 345 80.2843 345 72C345 63.7157 338.284 57 330 57C321.716 57 315 63.7157 315 72C315 80.2843 321.716 87 330 87Z" stroke="#555555" stroke-width="7" stroke-linecap="round" stroke-linejoin="round"/>
<g clip-path="url(#clip0_712_2)">
<path d="M30.2408 127.582H30.1748C25.2552 127.564 20.5212 125.52 16.7316 121.727C8.29544 113.264 8.29561 99.4964 16.7296 91.0385L16.7346 91.0335L16.7395 91.0283L84.032 19.5698C94.2997 9.29128 110.061 10.1613 121.64 21.7557C126.797 26.9216 129.703 34.3838 129.594 42.2435C129.485 50.0214 126.446 57.4544 121.269 62.6404L121.264 62.6457L121.258 62.6513L70.3972 116.798L70.3961 116.799C69.171 118.112 67.1155 118.173 65.8046 116.94C64.4969 115.704 64.4341 113.642 65.666 112.332L65.6662 112.332L116.599 58.1083C120.679 54.0179 123.008 48.2304 123.094 42.1524C123.18 36.0678 120.983 30.31 117.046 26.3629L117.046 26.3628C113.387 22.6966 108.563 19.8854 103.517 19.1115C98.4499 18.3346 93.1776 19.6172 88.7001 24.1053L88.695 24.1105L88.69 24.1157L21.3993 95.5742C15.4251 101.569 15.4254 111.198 21.3294 117.118L21.3297 117.118C24.0945 119.885 27.4078 121.258 30.9535 121.044L30.9538 121.044C34.4507 120.83 38.0027 119.042 40.9711 116.066L40.9763 116.06L40.9814 116.055L94.5224 59.068C95.5079 58.0798 97.0254 56.3433 97.7835 54.3132C98.1656 53.2899 98.3624 52.1718 98.1835 51.0288C98.0036 49.8792 97.4492 48.7409 96.3884 47.6776L96.3883 47.6775C95.2184 46.5057 94.196 45.9296 93.368 45.6597C92.5362 45.3886 91.9348 45.4386 91.6489 45.4623L91.6469 45.4625L91.6442 45.4627C89.9851 45.6095 88.1472 46.7359 86.3204 48.5684L86.3153 48.5735L86.3103 48.5789L46.0072 91.4432C44.7725 92.7559 42.7147 92.8172 41.4151 91.5826L41.4134 91.5811C40.1053 90.3494 40.045 88.2846 41.2753 86.9779L41.2756 86.9776L81.6471 44.0379C84.7652 40.9067 87.9056 39.2564 91.0558 38.9738C93.5033 38.7565 97.1862 39.266 100.981 43.0719L100.981 43.0721C103.783 45.879 104.998 49.3225 104.696 52.8927C104.394 56.4724 102.563 60.2224 99.1907 63.602L99.1854 63.6073L99.1803 63.6127L45.639 120.596C41.4371 124.81 36.3878 127.235 31.352 127.545L31.3483 127.545C30.9806 127.571 30.6116 127.582 30.2408 127.582Z" fill="#555555" stroke="black"/>
</g>
<defs>
<clipPath id="clip0_712_2">
<rect width="120" height="120" fill="white" transform="translate(10 10)"/>
</clipPath>
</defs>
</svg>
