<svg width="140" height="140" viewBox="0 0 140 140" fill="none" xmlns="http://www.w3.org/2000/svg">
<path d="M110.148 43.8203L84.9297 18.6016C84.2266 17.8984 83.2773 17.5 82.2812 17.5H32.5C30.4258 17.5 28.75 19.1758 28.75 21.25V118.75C28.75 120.824 30.4258 122.5 32.5 122.5H107.5C109.574 122.5 111.25 120.824 111.25 118.75V46.4805C111.25 45.4844 110.852 44.5234 110.148 43.8203ZM102.602 48.2031H80.5469V26.1484L102.602 48.2031ZM102.812 114.062H37.1875V25.9375H72.5781V51.25C72.5781 52.5554 73.0967 53.8073 74.0197 54.7303C74.9427 55.6533 76.1946 56.1719 77.5 56.1719H102.812V114.062Z" fill="#555555"/>
</svg>
