<svg width="64" height="64" viewBox="0 0 64 64" fill="none" xmlns="http://www.w3.org/2000/svg">
<path d="M32.0005 61.8666C28.0783 61.8666 24.1946 61.0941 20.571 59.5932C16.9474 58.0922 13.6549 55.8923 10.8815 53.1189C8.10816 50.3455 5.90819 47.053 4.40725 43.4294C2.90631 39.8059 2.13379 35.9221 2.13379 32C2.13379 28.0778 2.90631 24.1941 4.40725 20.5705C5.90819 16.9469 8.10816 13.6544 10.8815 10.881C13.6549 8.10767 16.9474 5.90771 20.571 4.40677C24.1946 2.90582 28.0783 2.1333 32.0005 2.1333C39.9216 2.1333 47.5183 5.27996 53.1194 10.881C58.7205 16.4821 61.8671 24.0788 61.8671 32C61.8671 39.9211 58.7205 47.5178 53.1194 53.1189C47.5183 58.72 39.9216 61.8666 32.0005 61.8666Z" fill="#00D32E"/>
<path d="M17.0671 32L29.8671 42.6666L38.4005 32L46.9338 21.3333M32.0005 61.8666C28.0783 61.8666 24.1946 61.0941 20.571 59.5932C16.9474 58.0922 13.6549 55.8923 10.8815 53.1189C8.10816 50.3455 5.90819 47.053 4.40725 43.4294C2.90631 39.8059 2.13379 35.9221 2.13379 32C2.13379 28.0778 2.90631 24.1941 4.40725 20.5705C5.90819 16.9469 8.10816 13.6544 10.8815 10.881C13.6549 8.10767 16.9474 5.90771 20.571 4.40677C24.1946 2.90582 28.0783 2.1333 32.0005 2.1333C39.9216 2.1333 47.5183 5.27996 53.1194 10.881C58.7205 16.4821 61.8671 24.0788 61.8671 32C61.8671 39.9211 58.7205 47.5178 53.1194 53.1189C47.5183 58.72 39.9216 61.8666 32.0005 61.8666Z" stroke="white" stroke-width="3"/>
</svg>
